<svg width="29" height="29" viewBox="0 0 29 29" fill="none" xmlns="http://www.w3.org/2000/svg">
<g clip-path="url(#clip0_2333_3978)">
<path d="M9.60644 11.394V16.8667H7.25097C4.94238 16.8667 3.06738 18.6831 3.06738 21.0034C3.06738 23.3237 4.94238 25.1987 7.25097 25.1987C9.55957 25.1987 11.4346 23.3237 11.4346 21.0034V18.6597H16.8369V21.0034C16.8369 23.3237 18.7119 25.1987 21.0205 25.1987C23.3291 25.1987 25.2041 23.3237 25.2041 21.0034C25.2041 18.6831 23.3291 16.8667 21.0205 16.8667H18.6651V11.394H21.0205C23.3291 11.394 25.2041 9.57763 25.2041 7.25732C25.2041 4.93701 23.3291 3.05029 21.0205 3.05029C18.7119 3.05029 16.8369 4.93701 16.8369 7.25732V9.60107H11.4346V7.25732C11.4346 4.93701 9.55957 3.05029 7.25097 3.05029C4.94238 3.05029 3.06738 4.93701 3.06738 7.25732C3.06738 9.57763 4.94238 11.394 7.25097 11.394H9.60644ZM7.25097 9.62451C5.96191 9.62451 4.8955 8.5581 4.8955 7.25732C4.8955 5.95654 5.96191 4.87841 7.25097 4.87841C8.54004 4.87841 9.60644 5.95654 9.60644 7.25732V9.62451H7.25097ZM21.0205 9.62451H18.6651V7.25732C18.6651 5.95654 19.7315 4.87841 21.0205 4.87841C22.3096 4.87841 23.376 5.95654 23.376 7.25732C23.376 8.5581 22.3096 9.62451 21.0205 9.62451ZM11.4346 16.8901V11.3706H16.8369V16.8901H11.4346ZM7.25097 18.6245H9.60644V20.9917C9.60644 22.2925 8.54004 23.3589 7.25097 23.3589C5.96191 23.3589 4.8955 22.2925 4.8955 20.9917C4.8955 19.6909 5.96191 18.6245 7.25097 18.6245ZM21.0205 18.6245C22.3096 18.6245 23.376 19.6909 23.376 20.9917C23.376 22.2925 22.3096 23.3589 21.0205 23.3589C19.7315 23.3589 18.6651 22.2925 18.6651 20.9917V18.6245H21.0205Z" fill="black" fill-opacity="0.85"/>
</g>
<defs>
<clipPath id="clip0_2333_3978">
<rect width="22.1367" height="22.1602" fill="white" transform="translate(3.06738 3.05029)"/>
</clipPath>
</defs>
</svg>
